<svg id="Ebene_1" version="1.1" viewBox="0 0 256 256" xml:space="preserve" xmlns="http://www.w3.org/2000/svg" enable-background="new 0 0 256 256"><path d="M156 80c-8-16.4-10-24-10-40v-2.6c1.2-.7 2-2 2-3.4 0-2.2-1.8-4-4-4h-32c-2.2 0-4 1.8-4 4 0 1.5.8 2.8 2 3.4V40c0 16-2 23.6-10 40s-8 32-8 32v104c0 13.3 10.7 24 24 24h24c13.3 0 24-10.7 24-24V112s0-15.6-8-32zm0 136c0 8.8-7.2 16-16 16h-24c-8.8 0-16-7.2-16-16V112c0-.1.1-13.9 7.2-28.5C115.8 65.9 118 56.9 118 40v-2h20v2c0 16.9 2.2 25.9 10.8 43.5 7 14.4 7.2 28.4 7.2 28.5v104zM108 28h40c1.1 0 2-.8 2-1.9v-6.3c0-1-.7-1.8-1.7-2-3.3-.6-11.2-1.8-20.3-1.8-9.1 0-17 1.2-20.3 1.8-1 .2-1.6 1-1.6 2v6.3c-.1 1.1.8 1.9 1.9 1.9zm34-6.5c0-.8.7-1.5 1.5-1.5h1c.8 0 1.5.7 1.5 1.5v1c0 .8-.7 1.5-1.5 1.5h-1c-.8 0-1.5-.7-1.5-1.5v-1zm-8 0c0-.8.7-1.5 1.5-1.5h1c.8 0 1.5.7 1.5 1.5v1c0 .8-.7 1.5-1.5 1.5h-1c-.8 0-1.5-.7-1.5-1.5v-1zm-8 0c0-.8.7-1.5 1.5-1.5h1c.8 0 1.5.7 1.5 1.5v1c0 .8-.7 1.5-1.5 1.5h-1c-.8 0-1.5-.7-1.5-1.5v-1zm-8 0c0-.8.7-1.5 1.5-1.5h1c.8 0 1.5.7 1.5 1.5v1c0 .8-.7 1.5-1.5 1.5h-1c-.8 0-1.5-.7-1.5-1.5v-1zm-8 0c0-.8.7-1.5 1.5-1.5h1c.8 0 1.5.7 1.5 1.5v1c0 .8-.7 1.5-1.5 1.5h-1c-.8 0-1.5-.7-1.5-1.5v-1z" fill="#1e804d" class="fill-000000"></path><path d="M141.2 106.9c-.4 0-.8.1-1.2.1-.4 0-.8 0-1.1-.1l-11.4-1.4-11.3-1.4h-.4l-7.8 1v111c0 4.4 3.6 8 8 8h24c4.4 0 8-3.6 8-8V106h-.2l-6.6.9z" fill="#1e804d" class="fill-000000"></path></svg>